<svg xmlns="http://www.w3.org/2000/svg" width="50" height="50" viewBox="0 0 3.125 3.125" style="enable-background:new 0 0 512 512" xml:space="preserve"><path fill="#c7ec96" d="M2.539 3.125H.586A.586.586 0 0 1 0 2.539V.586A.586.586 0 0 1 .586 0h1.953a.586.586 0 0 1 .586.586v1.953a.586.586 0 0 1-.586.586z" data-original="#f5e6fe"/><path fill="#6fc500" d="M1.553 1.428h.001l.319-.109a.079.079 0 0 0 .001-.017.045.045 0 0 0-.003-.016.102.102 0 0 0-.029-.043V1.1c0-.105-.038-.147-.077-.171-.019-.061-.103-.148-.268-.148-.195 0-.342.193-.342.319 0 .052-.002.093-.004.124l-.001.018a.1.1 0 0 0-.029.048.069.069 0 0 0-.001.012c0 .051.029.124.033.133a.045.045 0 0 0 .023.025.057.057 0 0 1 .001.014c0 .069.059.134.092.165-.003.072-.023.121-.052.133l-.255.085a.222.222 0 0 0-.145.157l-.034.138a.049.049 0 0 0 .047.061h.73a.675.675 0 0 1-.055-.081.554.554 0 0 1-.073-.273v-.261a.18.18 0 0 1 .121-.17z" data-original="#be63f9"/><path fill="#006c00" d="m2.311 1.551-.342-.116a.048.048 0 0 0-.031 0l-.342.116a.049.049 0 0 0-.033.046v.262c0 .319.356.474.372.481a.049.049 0 0 0 .038 0c.015-.006.372-.162.372-.481v-.262a.049.049 0 0 0-.033-.046zm-.144.247-.179.228a.065.065 0 0 1-.094.009l-.114-.098a.065.065 0 1 1 .085-.099l.062.053.137-.174a.065.065 0 1 1 .102.08z" data-original="#d9a4fc"/></svg>