<svg xmlns="http://www.w3.org/2000/svg" width="50" height="50" viewBox="0 0 46.27 46.27" style="enable-background:new 0 0 512 512" xml:space="preserve"><path d="M36.568 28.663c-.947-.987-2.09-1.513-3.3-1.513-1.202 0-2.353.518-3.34 1.503l-3.087 3.077c-.253-.137-.508-.263-.752-.39a11.867 11.867 0 0 1-.967-.518c-2.89-1.837-5.518-4.228-8.037-7.325-1.22-1.543-2.042-2.842-2.637-4.16.8-.732 1.543-1.493 2.265-2.227.273-.273.547-.557.82-.83 2.05-2.05 2.05-4.707 0-6.758l-2.667-2.667c-.303-.303-.615-.615-.908-.928a47.313 47.313 0 0 0-1.837-1.817c-.947-.938-2.08-1.435-3.272-1.435s-2.343.498-3.32 1.435l-.02.02-3.32 3.35a7.137 7.137 0 0 0-2.116 4.542c-.235 2.852.605 5.508 1.25 7.247 1.582 4.268 3.945 8.223 7.47 12.462 4.277 5.107 9.423 9.14 15.303 11.982 2.247 1.065 5.243 2.325 8.593 2.538.205.01.42.02.615.02 2.257 0 4.15-.81 5.635-2.422.01-.02.03-.03.038-.048.508-.615 1.093-1.172 1.708-1.768.42-.4.85-.82 1.27-1.26.967-1.007 1.475-2.178 1.475-3.378 0-1.212-.518-2.373-1.503-3.35l-5.362-5.382zm3.497 10.283c-.01 0-.01.01 0 0-.382.41-.772.782-1.192 1.192a25.383 25.383 0 0 0-1.885 1.953c-.987 1.055-2.148 1.553-3.672 1.553-.147 0-.303 0-.45-.01-2.9-.185-5.595-1.318-7.617-2.285-5.527-2.675-10.382-6.475-14.413-11.288-3.33-4.013-5.557-7.725-7.032-11.708-.908-2.432-1.24-4.327-1.093-6.113a4.478 4.478 0 0 1 1.348-2.9l3.33-3.33c.478-.45.987-.693 1.485-.693.615 0 1.113.372 1.425.683l.03.03a50.68 50.68 0 0 1 1.758 1.748c.303.313.615.625.928.947l2.667 2.667c1.035 1.035 1.035 1.992 0 3.027-.283.283-.557.567-.84.84-.82.84-1.602 1.622-2.452 2.383-.02.02-.038.03-.048.048-.84.84-.683 1.66-.508 2.217l.03.088c.693 1.68 1.67 3.262 3.155 5.147l.01.01c2.695 3.32 5.537 5.908 8.672 7.89.4.253.81.458 1.202.655.352.175.683.342.967.518.038.02.078.048.117.068.332.167.645.243.967.243.81 0 1.318-.508 1.485-.673l3.34-3.34c.332-.332.86-.732 1.475-.732.605 0 1.103.382 1.407.713l.02.02 5.382 5.382c1.007.997 1.007 2.022.01 3.057zM25.007 11.007c2.558.43 4.883 1.64 6.738 3.497s3.057 4.18 3.497 6.738a1.308 1.308 0 0 0 1.298 1.093c.078 0 .147-.01.225-.02a1.317 1.317 0 0 0 1.083-1.523c-.527-3.095-1.992-5.918-4.228-8.155s-5.058-3.702-8.155-4.228c-.723-.117-1.397.362-1.523 1.075s.342 1.407 1.065 1.523zm21.212 9.405c-.868-5.098-3.272-9.737-6.963-13.428S30.925.89 25.827.02a1.313 1.313 0 0 0-1.513 1.075 1.325 1.325 0 0 0 1.083 1.523 22.195 22.195 0 0 1 12.002 6.22 22.117 22.117 0 0 1 6.22 12.002 1.308 1.308 0 0 0 1.298 1.093c.078 0 .147-.01.225-.02a1.293 1.293 0 0 0 1.075-1.503z" fill="#fff" data-original="#000000"/></svg>