<svg xmlns="http://www.w3.org/2000/svg" width="50" height="50" viewBox="0 0 3.125 3.125" style="enable-background:new 0 0 512 512" xml:space="preserve"><path fill="#c7ec96" d="M2.539 3.125H.586A.586.586 0 0 1 0 2.539V.586A.586.586 0 0 1 .586 0h1.953a.586.586 0 0 1 .586.586v1.953a.586.586 0 0 1-.586.586z" data-original="#f5e6fe"/><g fill="#6fc500"><path d="M1.861 1.107h-.12a.049.049 0 0 1-.049-.049v-.055a.222.222 0 0 1 .223-.222h.12a.049.049 0 0 1 .049.049v.055a.222.222 0 0 1-.222.222z" data-original="#d9a4fc"/><path d="M1.742 1.579a.049.049 0 0 1-.049-.049v-.456a.049.049 0 0 1 .098 0v.456a.049.049 0 0 1-.049.049z" data-original="#d9a4fc"/><path d="M1.742 1.367h-.121a.286.286 0 0 1-.285-.285v-.057a.049.049 0 0 1 .049-.049h.121a.286.286 0 0 1 .285.285v.056a.049.049 0 0 1-.049.049z" data-original="#d9a4fc"/></g><path fill="#006c00" d="M.813 1.563a.033.033 0 0 0-.032.033v.601c0 .009.007.016.016.016h.154c.015 0 .027-.01.031-.024l.144-.508a.065.065 0 0 0-.04-.079.753.753 0 0 0-.274-.041zm1.4.358c-.13 0-.391.165-.521.165s-.276-.1-.276-.1.175.033.277.033.13-.035.13-.081c0-.114-.194-.132-.291-.146-.096-.054-.146-.096-.305-.109-.001.009-.002.018-.005.028l-.131.461c.148.067.403.174.537.174.195 0 .716-.26.716-.325s-.065-.098-.13-.098z" data-original="#be63f9"/></svg>