<svg xmlns="http://www.w3.org/2000/svg" width="120" height="120" viewBox="0 0 120 120" style="enable-background:new 0 0 512 512" xml:space="preserve"><g fill="#fff"><path data-original="#000000" d="M72.305 60A12.305 12.305 0 0 1 60 72.305 12.305 12.305 0 0 1 47.695 60a12.305 12.305 0 0 1 24.61 0z"/><path d="M60 1.406C27.64 1.406 1.406 27.64 1.406 60S27.639 118.594 60 118.594 118.594 92.361 118.594 60 92.36 1.406 60 1.406zm36.201 73.486c-.281 5.571-1.847 11.064-5.906 15.08-4.099 4.055-9.618 5.565-15.243 5.844H44.948c-5.625-.278-11.144-1.788-15.243-5.844-4.06-4.016-5.625-9.51-5.906-15.08V45.108c.281-5.571 1.847-11.064 5.906-15.081 4.099-4.055 9.618-5.565 15.243-5.844h30.104c5.625.278 11.144 1.788 15.243 5.844 4.06 4.017 5.625 9.51 5.906 15.081z" data-original="#000000"/><path d="M74.672 30.97c-7.333-.201-22.009-.201-29.342 0-3.816.105-8.142 1.055-10.86 3.959-2.825 3.019-3.893 6.665-4.001 10.745-.19 7.161 0 28.653 0 28.653.124 4.079 1.176 7.727 4.001 10.745 2.719 2.905 7.045 3.854 10.86 3.959 7.333.201 22.009.201 29.342 0 3.816-.105 8.142-1.055 10.86-3.959 2.825-3.019 3.893-6.665 4.001-10.745V45.674c-.108-4.08-1.176-7.727-4.001-10.745-2.72-2.905-7.046-3.854-10.86-3.959zM60 79.072A19.072 19.072 0 1 1 79.072 60 19.072 19.072 0 0 1 60 79.072zm19.153-34.208a3.814 3.814 0 1 1 3.816-3.814 3.814 3.814 0 0 1-3.815 3.814z" data-original="#000000"/></g></svg>