<svg xmlns="http://www.w3.org/2000/svg" xmlns:xlink="http://www.w3.org/1999/xlink" width="512" height="512" viewBox="0 0 512 512" style="enable-background:new 0 0 512 512" xml:space="preserve"><linearGradient id="c" x1="74.98" x2="437.019" y1="437.019" y2="74.98" gradientUnits="userSpaceOnUse"><stop offset="0" stop-color="#0056e0"/><stop offset="1" stop-color="#8affe1"/></linearGradient><radialGradient id="d" cx="256" cy="370.084" r="374.633" gradientUnits="userSpaceOnUse"><stop offset="0" stop-color="#0072ff" stop-opacity=".7"/><stop offset=".006" stop-color="#0173ff" stop-opacity=".696"/><stop offset=".247" stop-color="#32a5f4" stop-opacity=".527"/><stop offset=".475" stop-color="#58ccec" stop-opacity=".368"/><stop offset=".683" stop-color="#73e8e6" stop-opacity=".222"/><stop offset=".864" stop-color="#84f9e2" stop-opacity=".095"/><stop offset="1" stop-color="#8affe1" stop-opacity="0"/></radialGradient><linearGradient id="a"><stop offset="0" stop-color="#170794"/><stop offset="1" stop-color="#3ca1ff"/></linearGradient><linearGradient xlink:href="#a" id="e" x1="-49.271" x2="879.501" y1="521.9" y2="-406.872" gradientUnits="userSpaceOnUse"/><linearGradient xlink:href="#a" id="f" x1="126.555" x2="647.313" y1="516.888" y2="-3.869" gradientUnits="userSpaceOnUse"/><linearGradient xlink:href="#a" id="g" x1="177.11" x2="542.921" y1="365.066" y2="-.745" gradientUnits="userSpaceOnUse"/><linearGradient xlink:href="#a" id="h" x1="62.977" x2="577.647" y1="453.225" y2="-61.445" gradientUnits="userSpaceOnUse"/><linearGradient xlink:href="#a" id="i" x1="90.327" x2="572.605" y1="527" y2="44.722" gradientUnits="userSpaceOnUse"/><linearGradient xlink:href="#a" id="j" x1="-74.884" x2="621.245" y1="622.018" y2="-74.111" gradientUnits="userSpaceOnUse"/><linearGradient xlink:href="#a" id="k" x1="93.743" x2="531.942" y1="289.717" y2="-148.482" gradientUnits="userSpaceOnUse"/><linearGradient xlink:href="#a" id="l" x1="-10.528" x2="639.015" y1="441.729" y2="-207.813" gradientUnits="userSpaceOnUse"/><linearGradient xlink:href="#a" id="m" x1="-56.9" x2="467.578" y1="404.302" y2="-120.176" gradientUnits="userSpaceOnUse"/><linearGradient xlink:href="#a" id="n" x1="-86.21" x2="699.474" y1="454.315" y2="-331.368" gradientUnits="userSpaceOnUse"/><linearGradient xlink:href="#a" id="o" x1="-88.271" x2="688.711" y1="596.236" y2="-180.746" gradientUnits="userSpaceOnUse"/><linearGradient id="b"><stop offset="0" stop-color="#85ffe0"/><stop offset=".234" stop-color="#9dffe6"/><stop offset=".725" stop-color="#dafff6"/><stop offset="1" stop-color="#fff"/></linearGradient><linearGradient xlink:href="#b" id="p" x1="-6502.263" x2="326.6" y1="7095.627" y2="294.3" gradientUnits="userSpaceOnUse"/><linearGradient id="q" x1="143.324" x2="329.901" y1="476.837" y2="291.012" gradientUnits="userSpaceOnUse"><stop offset="0" stop-color="#85ffe0"/><stop offset=".226" stop-color="#9dffe6"/><stop offset=".701" stop-color="#dafff6"/><stop offset=".966" stop-color="#fff"/></linearGradient><linearGradient xlink:href="#b" id="r" x1="-473.855" x2="311.461" y1="1115.341" y2="330.025" gradientUnits="userSpaceOnUse"/><circle cx="256" cy="256" r="256" fill="url(#c)" data-original="url(#c)"/><circle cx="256" cy="256" r="256" fill="url(#d)" data-original="url(#d)"/><path fill="url(#e)" d="M202.634 381.616c-5.082-.099-10.165-.213-15.247-.341-.18-19.599-.317-39.198-.412-58.797-.078-17.004-12.793-25.823-27.533-35.939-15.993-11.006-34.159-23.263-34.107-47.807.01-4.14 3.463-7.53 7.707-7.571 38.186-.456 69.104 30.336 69.2 68.458.067 27.332.198 54.665.392 81.997z" data-original="url(#e)"/><path fill="url(#f)" d="M378.959 231.161c-38.186-.456-69.104 30.336-69.2 68.458-.067 27.332-.198 54.665-.393 81.997 5.082-.099 10.165-.213 15.247-.341.18-19.599.317-39.198.412-58.797.077-17.004 12.793-25.823 27.533-35.939 15.993-11.005 34.16-23.263 34.107-47.807-.009-4.14-3.462-7.53-7.706-7.571z" data-original="url(#f)"/><path fill="url(#g)" d="M378.254 150.5c-8.135-.311-16.025.391-23.574 1.994.027-.057-22.798 28.586-40.07 42.725-18.238 14.869-35.54 44.53-35.55 72.209-.001 5.121-.004 10.242-.007 15.364 5.123-.009 10.246-.021 15.369-.036.023-27.641 20.808-41.954 42.771-56.801 23.123-15.706 49.3-32.845 48.81-67.654-.057-4.14-3.53-7.638-7.749-7.801z" data-original="url(#g)"/><path fill="url(#h)" d="M279.062 248.114c.001 6.438.001 12.876-.001 19.314.005-27.676 17.321-41.981 35.6-56.91 17.26-14.126 36.533-29.633 40.019-58.024-43.302 9.162-75.597 48.664-75.618 95.62z" data-original="url(#h)"/><path fill="url(#i)" d="M279.054 282.791c-.021 33.083-.082 66.167-.183 99.25 5.082-.043 10.165-.099 15.247-.17.167-33.039.269-66.078.304-99.116.005-4.236-3.434-7.663-7.679-7.657a7.7 7.7 0 0 0-7.689 7.693z" data-original="url(#i)"/><path fill="url(#j)" d="M242.529 205.988c3.829 5.275 5.79 11.689 5.788 18.218-.013 52.64.006 105.28.06 157.92 5.082.014 10.165.014 15.247 0 .053-52.64.073-105.28.06-157.92-.002-6.529 1.959-12.943 5.788-18.218a7116.92 7116.92 0 0 0-26.943 0z" data-original="url(#j)"/><path fill="url(#k)" d="M250.398 42.305c-42.755 49.984-43.864 124.03-.131 173.364a7.61 7.61 0 0 0 5.733 2.579c5.121-29.756 10.224-59.507 15.246-89.224C266.103 99.249 261 69.469 256 39.713a7.355 7.355 0 0 0-5.602 2.592z" data-original="url(#k)"/><path fill="url(#l)" d="M289.841 96.494A12002.044 12002.044 0 0 0 256 128.981v89.267a7.61 7.61 0 0 0 5.733-2.579c29.557-33.531 38.75-78.151 28.108-119.175z" data-original="url(#l)"/><path fill="url(#m)" d="M289.841 96.494c-5.04-19.494-14.505-38.193-28.239-54.189A7.354 7.354 0 0 0 256 39.714v89.267c18.307-.01 33.146-14.296 33.841-32.487z" data-original="url(#m)"/><path fill="url(#n)" d="M133.746 150.5c-4.219.162-7.691 3.661-7.75 7.8-.489 34.809 25.687 51.948 48.81 67.654 18.466-.429 36.931-.818 55.396-1.163-10.532-43.917-49.658-76.226-96.456-74.291z" data-original="url(#n)"/><path fill="url(#o)" d="M230.202 224.791c-15.617-14.632-40.088-14.087-55.396 1.163 21.963 14.846 42.747 29.161 42.771 56.801.036 33.039.137 66.078.305 99.116 5.082.071 10.165.127 15.247.17-.136-44.643-.199-89.285-.191-133.928.002-8.034-.95-15.843-2.736-23.322z" data-original="url(#o)"/><path fill="url(#p)" d="M125.812 339.5c-.05-4.139 3.345-7.397 7.578-7.283a4467.073 4467.073 0 0 0 245.221 0c4.233-.113 7.628 3.142 7.578 7.283-1.133 69.63-60.204 132.446-130.189 132.775-69.985-.329-129.055-63.144-130.188-132.775z" data-original="url(#p)"/><path fill="url(#p)" d="M125.812 339.5c-.05-4.139 3.345-7.397 7.578-7.283a4467.073 4467.073 0 0 0 245.221 0c4.233-.113 7.628 3.142 7.578 7.283-1.133 69.63-60.204 132.446-130.189 132.775-69.985-.329-129.055-63.144-130.188-132.775z" data-original="url(#p)"/><path fill="url(#q)" d="M125.812 339.5c-.05-4.139 3.345-7.397 7.578-7.283 28.098.771 56.197 1.278 84.295 1.519 23.046 18.097 46.01 36.152 68.788 53.799 22.93-18.18 46.014-36.551 69.149-54.746 7.663-.171 15.326-.362 22.99-.572 4.233-.113 7.628 3.142 7.578 7.283-1.134 69.63-60.205 132.446-130.19 132.775-69.985-.329-129.055-63.144-130.188-132.775z" data-original="url(#q)"/><path fill="url(#r)" d="M355.621 332.789a4466.924 4466.924 0 0 1-137.937.947 7.543 7.543 0 0 0-7.633 7.592c.258 42.217 34.512 77.513 76.276 76.916 41.761-.722 76.399-36.536 76.887-78.072.041-4.174-3.36-7.476-7.593-7.383z" data-original="url(#r)"/></svg>