<svg xmlns="http://www.w3.org/2000/svg" width="50" height="50" viewBox="0 0 48.453 48.453" style="enable-background:new 0 0 512 512" xml:space="preserve">
<path d="M48.453 24.227C48.453 10.846 37.606 0 24.227 0 10.847 0 0 10.846 0 24.227c0 13.379 10.847 24.226 24.227 24.226 13.379 0 24.226-10.847 24.226-24.226z" fill="#00796b" data-original="#32bea6"/>
<path d="M36.211 22.973 19.127 12.482a1.562 1.562 0 0 0-1.558-.031 1.541 1.541 0 0 0-.788 1.344v20.898a1.542 1.542 0 0 0 .786 1.343 1.545 1.545 0 0 0 .754.197c.283 0 .56-.078.801-.225L36.207 25.6a1.55 1.55 0 0 0 .739-1.313 1.547 1.547 0 0 0-.734-1.315z" fill="#fff" data-original="#ffffff"/>
</svg>