<svg xmlns="http://www.w3.org/2000/svg" width="50" height="50" viewBox="0 0 3.125 3.125" style="enable-background:new 0 0 512 512" xml:space="preserve"><path fill="#c7ec96" d="M2.539 3.125H.586A.586.586 0 0 1 0 2.539V.586A.586.586 0 0 1 .586 0h1.953a.586.586 0 0 1 .586.586v1.953a.586.586 0 0 1-.586.586z" data-original="#f5e6fe"/><path d="m1.432.781.651.26-.651.26-.651-.259zm-.065.635-.586-.234v.641c0 .014.008.026.021.031l.565.207zm.187.012.342-.116a.177.177 0 0 1 .116 0l.072.025v-.154l-.586.234v.044a.194.194 0 0 1 .056-.032z" fill="#6fc500" data-original="#be63f9"/><path fill="#006c00" d="m2.311 1.551-.342-.116a.048.048 0 0 0-.031 0l-.342.116a.049.049 0 0 0-.033.046v.262c0 .319.356.474.372.481a.049.049 0 0 0 .038 0c.015-.007.371-.162.371-.481v-.262a.049.049 0 0 0-.033-.046zm-.144.247-.179.228a.065.065 0 0 1-.094.009l-.114-.098a.065.065 0 1 1 .085-.099l.062.053.137-.174a.065.065 0 1 1 .102.08z" data-original="#d9a4fc"/></svg>