<svg xmlns="http://www.w3.org/2000/svg" width="50" height="50" viewBox="0 0 3.125 3.125" style="enable-background:new 0 0 512 512" xml:space="preserve"><path fill="#c7ec96" d="M2.539 3.125H.586A.586.586 0 0 1 0 2.539V.586A.586.586 0 0 1 .586 0h1.953a.586.586 0 0 1 .586.586v1.953a.586.586 0 0 1-.586.586z" data-original="#f5e6fe"/><path d="M2.295 1.302h-.423a.049.049 0 0 0 0 .098h.423a.049.049 0 0 0 0-.098zm0 .195h-.423a.049.049 0 0 0 0 .098h.423a.049.049 0 0 0 0-.098zm0 .195h-.423a.049.049 0 0 0 0 .098h.423a.049.049 0 0 0 0-.098zm0 .195h-.423a.049.049 0 0 0 0 .098h.423a.049.049 0 0 0 0-.098zm0 .195h-.423a.049.049 0 0 0 0 .098h.423a.049.049 0 0 0 0-.098z" fill="#6fc500" data-original="#d9a4fc"/><path d="M.895 2.181h.684a.114.114 0 0 0 .114-.114v-.651a.114.114 0 0 0-.114-.114H.895a.115.115 0 0 0-.114.114v.651c0 .063.051.114.114.114zm.342-.651a.098.098 0 1 1 0 .195.098.098 0 1 1 0-.195zm-.195.383c0-.068.061-.122.137-.122h.117c.075 0 .137.055.137.122v.024a.05.05 0 0 1-.049.049h-.293a.049.049 0 0 1-.049-.049zM2.23.749H.895a.114.114 0 0 0-.114.114v.162c0 .063.051.114.114.114H2.23a.114.114 0 0 0 .114-.114V.863A.114.114 0 0 0 2.23.749z" fill="#006c00" data-original="#be63f9" opacity=".78"/></svg>