<svg xmlns="http://www.w3.org/2000/svg" width="120" height="120" viewBox="0 0 5.625 5.625" style="enable-background:new 0 0 512 512" xml:space="preserve">
<path d="M2.813 5.625a2.812 2.812 0 1 0 .001-5.627 2.812 2.812 0 0 0-.001 5.628zM1.287 2.752l2.712-1.046c.126-.045.236.031.195.221l-.462 2.175c-.034.154-.126.192-.254.119l-.703-.518-.339.327c-.037.037-.069.069-.142.069l.05-.716 1.303-1.177c.057-.05-.013-.078-.087-.028L1.95 3.192l-.694-.217c-.151-.048-.154-.151.032-.223z" fill="#fff" data-original="#000000"/>
</svg>