<svg xmlns="http://www.w3.org/2000/svg" width="120" height="120" viewBox="0 0 120 120" style="enable-background:new 0 0 512 512" xml:space="preserve">
<path d="M60 0C26.868 0 0 26.868 0 60s26.868 60 60 60 60-26.868 60-60S93.132 0 60 0zm27.395 46.782c.026.591.039 1.184.039 1.78 0 18.198-13.852 39.183-39.184 39.184h.001a38.984 38.984 0 0 1-21.109-6.186c1.077.127 2.174.191 3.285.191a27.634 27.634 0 0 0 17.105-5.895c-6.029-.112-11.112-4.093-12.866-9.566a13.706 13.706 0 0 0 2.588.249 13.781 13.781 0 0 0 3.632-.485c-6.301-1.262-11.048-6.831-11.048-13.5 0-.062 0-.118.002-.176a13.677 13.677 0 0 0 6.238 1.722 13.758 13.758 0 0 1-6.129-11.463 13.734 13.734 0 0 1 1.865-6.922c6.791 8.333 16.941 13.813 28.387 14.389a13.76 13.76 0 0 1-.358-3.14c0-7.602 6.168-13.77 13.773-13.77 3.961 0 7.539 1.675 10.052 4.352a27.622 27.622 0 0 0 8.745-3.343 13.83 13.83 0 0 1-6.056 7.617 27.446 27.446 0 0 0 7.908-2.169 27.987 27.987 0 0 1-6.869 7.132zm0 0" fill="#fff" data-original="#000000"/>
</svg>