<svg xmlns="http://www.w3.org/2000/svg" width="50" height="50" viewBox="0 0 3.125 3.125" style="enable-background:new 0 0 512 512" xml:space="preserve"><path fill="#c7ec96" d="M2.539 3.125H.586A.586.586 0 0 1 0 2.539V.586A.586.586 0 0 1 .586 0h1.953a.586.586 0 0 1 .586.586v1.953a.586.586 0 0 1-.586.586z" data-original="#f5e6fe"/><path fill="#6fc500" d="M1.514 1.79v-.107a.072.072 0 0 0-.072-.072H.853a.072.072 0 0 0-.072.072v.589c0 .04.032.072.072.072h.589a.072.072 0 0 0 .072-.072V1.79zm0-.456V.853a.072.072 0 0 0-.072-.072H.853a.072.072 0 0 0-.072.072v.589c0 .04.032.072.072.072h.589a.072.072 0 0 0 .072-.072v-.107zm.098.179v.205c0 .04.032.072.072.072h.589a.072.072 0 0 0 .072-.072v-.313a.072.072 0 0 0-.072-.072h-.589a.072.072 0 0 0-.072.072z" data-original="#be63f9"/><path fill="#006c00" d="M1.683 2.344h.589a.072.072 0 0 0 .072-.072v-.313a.072.072 0 0 0-.072-.072h-.589a.072.072 0 0 0-.072.072v.313a.071.071 0 0 0 .071.072zM2.272.781h-.589a.072.072 0 0 0-.072.072v.313c0 .04.032.072.072.072h.589a.072.072 0 0 0 .072-.072V.853a.071.071 0 0 0-.072-.072z" data-original="#d9a4fc"/></svg>