<svg xmlns="http://www.w3.org/2000/svg" width="120" height="120" viewBox="0 0 35.625 35.625" style="enable-background:new 0 0 512 512" xml:space="preserve">
<g data-name="Layer 2">
<g data-name="08.whatsapp" fill="#fff">
<path d="m22.734 12.891-.035-.035a6.916 6.916 0 0 0-11.051 8.022l.305.6-.57 2.761v.035l2.735-.649.623.309a6.921 6.921 0 0 0 7.969-1.303 6.921 6.921 0 0 0 .024-9.74zm-.277 7.734c-.335.527-.867 1.172-1.53 1.334-1.172.284-2.955 0-5.189-2.065l-.028-.026c-1.943-1.814-2.459-3.326-2.344-4.523.068-.68.635-1.294 1.113-1.697a.635.635 0 0 1 .996.234l.72 1.641a.633.633 0 0 1-.077.647l-.366.469a.621.621 0 0 0-.049.691 6.797 6.797 0 0 0 1.235 1.371 7.17 7.17 0 0 0 1.711 1.226.619.619 0 0 0 .677-.143l.42-.424a.638.638 0 0 1 .645-.197l1.711.492a.64.64 0 0 1 .361.956z" data-original="#000000"/>
<path d="M17.813 0a17.813 17.813 0 1 0 17.813 17.813A17.813 17.813 0 0 0 17.813 0zm8.829 18.021a8.838 8.838 0 0 1-12.764 7.629l-4.453 1.059a.345.345 0 0 1-.361-.141.337.337 0 0 1-.054-.265l.938-4.552A8.836 8.836 0 1 1 26.65 18.02z" data-original="#000000"/>
</g></g>
</svg>