<svg xmlns="http://www.w3.org/2000/svg" width="120" height="120" viewBox="0 0 120 120" style="enable-background:new 0 0 512 512" xml:space="preserve">
<g fill="#fff">
<path d="M52.526 71.241 72.044 60 52.527 48.759zm0 0" data-original="#000000"/>
<path d="M60 0C26.868 0 0 26.868 0 60s26.868 60 60 60 60-26.868 60-60S93.132 0 60 0zm37.491 60.061s0 12.168-1.543 18.036a9.392 9.392 0 0 1-6.609 6.608C83.471 86.25 60 86.25 60 86.25s-23.409 0-29.338-1.606a9.394 9.394 0 0 1-6.609-6.609C22.508 72.23 22.508 60 22.508 60s0-12.167 1.545-18.035c.864-3.211 3.459-5.806 6.609-6.67C36.529 33.75 60 33.75 60 33.75s23.47 0 29.338 1.606a9.394 9.394 0 0 1 6.609 6.609c1.606 5.868 1.544 18.096 1.544 18.096zm0 0" data-original="#000000"/>
</g>
</svg>